<mxfile host="app.diagrams.net" agent="Mozilla/5.0 (Windows NT 10.0; Win64; x64) AppleWebKit/537.36 (KHTML, like Gecko) Chrome/130.0.0.0 Safari/537.36 Edg/130.0.0.0" version="24.8.3">
  <diagram id="C5RBs43oDa-KdzZeNtuy" name="Page-1">
    <mxGraphModel dx="719" dy="390" grid="1" gridSize="10" guides="1" tooltips="1" connect="1" arrows="1" fold="1" page="1" pageScale="1" pageWidth="827" pageHeight="1169" math="0" shadow="0">
      <root>
        <mxCell id="WIyWlLk6GJQsqaUBKTNV-0" />
        <mxCell id="WIyWlLk6GJQsqaUBKTNV-1" parent="WIyWlLk6GJQsqaUBKTNV-0" />
        <mxCell id="fncum2wQha9_DanBFNjW-1" value="" style="edgeStyle=orthogonalEdgeStyle;rounded=0;orthogonalLoop=1;jettySize=auto;html=1;" edge="1" parent="WIyWlLk6GJQsqaUBKTNV-1" source="WIyWlLk6GJQsqaUBKTNV-3" target="fncum2wQha9_DanBFNjW-0">
          <mxGeometry relative="1" as="geometry" />
        </mxCell>
        <mxCell id="WIyWlLk6GJQsqaUBKTNV-3" value="生成根密钥对(sk&lt;sub style=&quot;font-size: 12px;&quot;&gt;root&lt;/sub&gt;, pk&lt;sub style=&quot;font-size: 12px;&quot;&gt;root&lt;/sub&gt;)和初始泄露随机数K&lt;sub style=&quot;font-size: 12px;&quot;&gt;leak&lt;/sub&gt;" style="rounded=1;whiteSpace=wrap;html=1;fontSize=12;glass=0;strokeWidth=1;shadow=0;" parent="WIyWlLk6GJQsqaUBKTNV-1" vertex="1">
          <mxGeometry x="120" y="60" width="160" height="60" as="geometry" />
        </mxCell>
        <mxCell id="fncum2wQha9_DanBFNjW-3" value="" style="edgeStyle=orthogonalEdgeStyle;rounded=0;orthogonalLoop=1;jettySize=auto;html=1;" edge="1" parent="WIyWlLk6GJQsqaUBKTNV-1" source="fncum2wQha9_DanBFNjW-0" target="fncum2wQha9_DanBFNjW-2">
          <mxGeometry relative="1" as="geometry" />
        </mxCell>
        <mxCell id="fncum2wQha9_DanBFNjW-0" value="将pk&lt;sub&gt;root&lt;/sub&gt;和K&lt;sub&gt;leak&lt;/sub&gt;共享给接收方" style="whiteSpace=wrap;html=1;rounded=1;glass=0;strokeWidth=1;shadow=0;" vertex="1" parent="WIyWlLk6GJQsqaUBKTNV-1">
          <mxGeometry x="140" y="150" width="120" height="60" as="geometry" />
        </mxCell>
        <mxCell id="fncum2wQha9_DanBFNjW-5" value="" style="edgeStyle=orthogonalEdgeStyle;rounded=0;orthogonalLoop=1;jettySize=auto;html=1;" edge="1" parent="WIyWlLk6GJQsqaUBKTNV-1" source="fncum2wQha9_DanBFNjW-2" target="fncum2wQha9_DanBFNjW-4">
          <mxGeometry relative="1" as="geometry" />
        </mxCell>
        <mxCell id="fncum2wQha9_DanBFNjW-2" value="使用sk&lt;sub&gt;root&lt;/sub&gt;派生密钥作为种子" style="whiteSpace=wrap;html=1;rounded=1;glass=0;strokeWidth=1;shadow=0;" vertex="1" parent="WIyWlLk6GJQsqaUBKTNV-1">
          <mxGeometry x="140" y="250" width="120" height="60" as="geometry" />
        </mxCell>
        <mxCell id="fncum2wQha9_DanBFNjW-8" value="" style="edgeStyle=orthogonalEdgeStyle;rounded=0;orthogonalLoop=1;jettySize=auto;html=1;" edge="1" parent="WIyWlLk6GJQsqaUBKTNV-1" source="fncum2wQha9_DanBFNjW-4" target="fncum2wQha9_DanBFNjW-7">
          <mxGeometry relative="1" as="geometry" />
        </mxCell>
        <mxCell id="fncum2wQha9_DanBFNjW-4" value="使用种子生成私钥作为隐蔽交易输入嵌入消息" style="whiteSpace=wrap;html=1;rounded=1;glass=0;strokeWidth=1;shadow=0;" vertex="1" parent="WIyWlLk6GJQsqaUBKTNV-1">
          <mxGeometry x="140" y="340" width="120" height="60" as="geometry" />
        </mxCell>
        <mxCell id="fncum2wQha9_DanBFNjW-10" value="" style="edgeStyle=orthogonalEdgeStyle;rounded=0;orthogonalLoop=1;jettySize=auto;html=1;" edge="1" parent="WIyWlLk6GJQsqaUBKTNV-1" source="fncum2wQha9_DanBFNjW-6" target="fncum2wQha9_DanBFNjW-9">
          <mxGeometry relative="1" as="geometry" />
        </mxCell>
        <mxCell id="fncum2wQha9_DanBFNjW-6" value="根据pk&lt;sub&gt;root&lt;/sub&gt;筛选泄露交易" style="whiteSpace=wrap;html=1;rounded=1;glass=0;strokeWidth=1;shadow=0;" vertex="1" parent="WIyWlLk6GJQsqaUBKTNV-1">
          <mxGeometry x="330" y="60" width="120" height="60" as="geometry" />
        </mxCell>
        <mxCell id="fncum2wQha9_DanBFNjW-7" value="使用种子对应的密钥以及泄露随机数发送泄露交易将种子共享给接收方" style="whiteSpace=wrap;html=1;rounded=1;glass=0;strokeWidth=1;shadow=0;" vertex="1" parent="WIyWlLk6GJQsqaUBKTNV-1">
          <mxGeometry x="140" y="430" width="120" height="60" as="geometry" />
        </mxCell>
        <mxCell id="fncum2wQha9_DanBFNjW-12" value="" style="edgeStyle=orthogonalEdgeStyle;rounded=0;orthogonalLoop=1;jettySize=auto;html=1;" edge="1" parent="WIyWlLk6GJQsqaUBKTNV-1" source="fncum2wQha9_DanBFNjW-9" target="fncum2wQha9_DanBFNjW-11">
          <mxGeometry relative="1" as="geometry" />
        </mxCell>
        <mxCell id="fncum2wQha9_DanBFNjW-9" value="根据泄露交易提取种子" style="whiteSpace=wrap;html=1;rounded=1;glass=0;strokeWidth=1;shadow=0;" vertex="1" parent="WIyWlLk6GJQsqaUBKTNV-1">
          <mxGeometry x="330" y="144" width="120" height="60" as="geometry" />
        </mxCell>
        <mxCell id="fncum2wQha9_DanBFNjW-14" value="" style="edgeStyle=orthogonalEdgeStyle;rounded=0;orthogonalLoop=1;jettySize=auto;html=1;" edge="1" parent="WIyWlLk6GJQsqaUBKTNV-1" source="fncum2wQha9_DanBFNjW-11" target="fncum2wQha9_DanBFNjW-13">
          <mxGeometry relative="1" as="geometry" />
        </mxCell>
        <mxCell id="fncum2wQha9_DanBFNjW-11" value="基于种子计算派生密钥" style="whiteSpace=wrap;html=1;rounded=1;glass=0;strokeWidth=1;shadow=0;" vertex="1" parent="WIyWlLk6GJQsqaUBKTNV-1">
          <mxGeometry x="330" y="240" width="120" height="60" as="geometry" />
        </mxCell>
        <mxCell id="fncum2wQha9_DanBFNjW-13" value="根据派生密钥筛选隐蔽交易并提取秘密消息" style="whiteSpace=wrap;html=1;rounded=1;glass=0;strokeWidth=1;shadow=0;" vertex="1" parent="WIyWlLk6GJQsqaUBKTNV-1">
          <mxGeometry x="330" y="340" width="120" height="60" as="geometry" />
        </mxCell>
      </root>
    </mxGraphModel>
  </diagram>
</mxfile>
